<svg width="200" height="200" viewBox="0 0 750 750" fill="none" xmlns="http://www.w3.org/2000/svg">
<path id="tr-logo" d="M587.37 74.2615V72.7615C557.119 51.2785 515.608 28.3105 480.105 17.2685C441.325 5.22151 401.329 -0.0594947 360.838 0.000505271L345.086 0.750507C334.022 0.885507 306.155 4.8235 294.829 7.0885C220.058 22.0385 150.111 61.2385 98.2327 117.017C70.2387 147.119 55.5747 170.589 37.3547 207.029L25.3917 232.533C24.2817 235.308 21.6487 241.805 21.2957 244.528C21.1377 245.743 21.1157 246.815 21.7907 247.895C23.0427 249.92 31.3467 254.773 33.7917 256.236C47.9537 264.735 64.9587 273.031 80.2977 279.189C131.62 299.779 192.522 315.817 246.821 326.746L286.576 334.697C290.079 335.395 300.558 337.765 303.536 336.37C305.861 335.275 308.345 327.376 309.38 324.796L323.332 291.792C338.521 256.604 360.537 216.842 383.25 186.028C418.723 137.909 462.469 97.8075 521.359 81.8755C532.326 78.9125 549.105 75.7775 560.365 75.7315H569.366L577.617 75.0115C581.37 74.9965 583.679 75.3115 587.37 74.2615ZM605.373 89.2635L607.504 111.017L609.124 138.021V156.023C609.108 167.597 606.011 188.075 603.385 199.529C590.221 256.965 557.517 299.21 511.611 334.982C486.692 354.395 458.473 369.314 429.849 382.38L405.845 392.342C403.76 393.122 397.144 395.313 396.192 397.113C395.33 398.733 396.41 400.632 397.174 402.056L404.045 413.309L435.534 460.565C465.853 502.968 505.249 547.24 551.365 572.556C572.166 583.98 592.193 591.091 615.875 593.461L622.625 594.083L645.879 593.393C649.247 593.122 655.668 592.704 658.503 590.979C660.461 589.786 662.996 586.238 664.459 584.333C668.682 578.798 672.365 573.082 675.891 567.081C687.615 547.128 699.077 526.897 708.138 505.572C719.427 479.01 726.733 450.093 730.843 421.559L733.709 393.805L734.391 386.305V350.299C734.369 336.639 730.378 306.974 727.483 293.292C720.012 257.985 708.896 227.898 692.566 195.778C676.003 163.194 657.191 141.283 633.563 114.017C628.109 107.731 622.093 101.588 615.875 96.0515C612.904 93.4115 611.021 90.9955 606.873 91.5135L605.373 89.2635ZM355.588 350.3C362.099 350.15 369.593 346.887 375.841 344.801C390.798 339.798 405.726 333.759 420.097 327.271C469.807 304.858 519.239 276.077 548.066 228.033C557.832 211.756 567.643 185.645 567.869 166.525C568.004 154.485 568.514 139.176 566.676 127.52C566.279 124.999 565.424 116.951 563.578 115.511C562.303 114.521 558.928 114.731 557.367 114.896C554.014 115.256 543.602 118.122 540.115 119.269C515.909 127.265 497.329 138.772 477.856 155.087C435.205 190.822 404.045 244.761 379.405 294.043L362.34 331.548C359.969 337.082 355.918 344.381 355.588 350.3ZM6.78874 298.542C4.02874 308.953 0.165736 341.613 0.0377357 352.549C-0.322264 383.821 1.84573 417.208 8.60373 447.813C24.5357 519.935 66.0317 592.111 121.555 640.799C143.451 660.002 165.151 676.446 191.315 689.534C197.331 692.543 208.695 699.496 214.568 700.598L227.612 624.087C236.823 574.933 247.58 526.295 259.852 477.815L276.617 418.557C279.024 410.561 284.913 395.236 285.078 387.802C220.021 374.72 154.98 361.579 92.3007 339.279C72.5957 332.266 53.0477 324.224 34.5427 314.457L18.0407 304.773C14.2217 302.315 11.2967 299.487 6.78874 298.542ZM337.586 396.056L327.834 422.31L312.292 471.816C295.805 526.776 282.25 582.39 269.589 638.34L257.324 696.098L254.541 710.35C254.279 712.361 254.046 715.001 255.524 716.614C256.926 718.152 260.564 718.977 262.575 719.607L279.077 724.325C299.465 729.419 320.4 732.209 341.336 733.672L350.337 734.354H389.343C403.94 734.332 431.687 729.659 446.351 726.418C488.402 717.132 531.938 699.647 567.869 675.846C582.196 666.35 595.338 655.293 608.374 644.14C612.748 640.397 621.021 634.779 622.626 629.31H613.625L604.624 628.59C594.82 628.574 584.844 626.677 575.37 624.179C544.352 615.995 516.194 598.832 491.358 578.932C455.637 550.316 424.463 514.738 396.582 478.568C382.45 460.228 368.799 441.01 356.234 421.56L345.98 405.809C343.609 401.99 341.719 398.111 337.586 396.056Z" fill="url(#brand-fill)"/>
<defs>
<linearGradient id="brand-fill" x1="194.651" y1="8.81818" x2="236.076" y2="292.989" gradientUnits="userSpaceOnUse">
<stop stop-color="#FFEA83"/>
<stop offset="0.0833333" stop-color="#FFDD35"/>
<stop offset="1" stop-color="#FFA800"/>
</linearGradient>
</defs>
</svg>
