<svg width="87" height="87" viewBox="0 0 87 87" fill="none" xmlns="http://www.w3.org/2000/svg">
<path d="M28.04 42.0398L12.36 57.7198L8.53923 61.5598L7.56323 63.4222L9.80003 66.1454L14.92 71.2654L16.84 73.7198C19.5536 72.6222 22.9872 68.5326 25.16 66.3598L41.4799 50.0398L46.8271 44.5998C47.3263 44.0302 48.4687 42.811 48.4591 42.0398C48.4495 41.2334 47.4479 40.3406 46.9199 39.7998L42.1199 34.9999L26.44 19.3199L21.96 14.8399C21.4384 14.3215 20.3888 13.2047 19.72 12.9743C18.5712 12.5775 17.5664 13.8063 16.84 14.5199L11.08 20.2799C10.4112 20.9551 9.00323 22.0975 9.26883 23.1599C9.49603 24.0719 13.3808 27.7007 14.28 28.5999L28.04 42.0398ZM61.9599 42.0398L46.2799 57.7198L42.4591 61.5598L41.4831 63.4222L43.7199 66.1454L48.8399 71.2654L50.7599 73.7198C53.4735 72.6222 56.9071 68.5326 59.0799 66.3598L75.3999 50.0398L80.747 44.5998C81.2462 44.0302 82.3886 42.811 82.379 42.0398C82.3694 41.2334 81.3678 40.3406 80.8398 39.7998L76.0399 34.9999L60.3599 19.3199L55.8799 14.8399C55.3583 14.3215 54.3087 13.2047 53.6399 12.9743C52.4911 12.5775 51.4863 13.8063 50.7599 14.5199L44.9999 20.2799C44.3311 20.9551 42.9231 22.0975 43.1887 23.1599C43.4159 24.0719 47.3007 27.7007 48.1999 28.5999L61.9599 42.0398Z" fill="#1F38C5"/>
</svg>
